{
	"asset":{
		"generator":"Khronos glTF Blender I/O v3.6.27",
		"version":"2.0"
	},
	"scene":0,
	"scenes":[
		{
			"name":"Scene",
			"nodes":[
				0
			]
		}
	],
	"nodes":[
		{
			"mesh":0,
			"name":"Suzanne"
		}
	],
	"materials":[
		{
			"doubleSided":true,
			"name":"Material.001",
			"pbrMetallicRoughness":{
				"baseColorTexture":{
					"index":0
				},
				"metallicFactor":0,
				"roughnessFactor":0.5
			}
		}
	],
	"meshes":[
		{
			"name":"Suzanne",
			"primitives":[
				{
					"attributes":{
						"POSITION":0,
						"NORMAL":1,
						"TEXCOORD_0":2
					},
					"indices":3,
					"material":0
				}
			]
		}
	],
	"textures":[
		{
			"sampler":0,
			"source":0
		}
	],
	"images":[
		{
			"mimeType":"image/png",
			"name":"DALL\u00b7E 2023-11-22 15.19.49 - Abstract representation of a first-time encounter, featuring vibrant, psychedelic colors and surreal elements symbolizing new beginnings and personal ",
			"uri":"DALL%C2%B7E%202023-11-22%2015_19_49%20-%20Abstract%20representation%20of%20a%20first-time%20encounter%20featuring%20vibrant%20psychedelic%20colors%20and%20surreal%20elements%20symbolizing%20new%20beginnings%20and%20personal%20.png"
		}
	],
	"accessors":[
		{
			"bufferView":0,
			"componentType":5126,
			"count":1966,
			"max":[
				1.3671875,
				0.984375,
				0.8515625
			],
			"min":[
				-1.3671875,
				-0.984375,
				-0.8515625
			],
			"type":"VEC3"
		},
		{
			"bufferView":1,
			"componentType":5126,
			"count":1966,
			"type":"VEC3"
		},
		{
			"bufferView":2,
			"componentType":5126,
			"count":1966,
			"type":"VEC2"
		},
		{
			"bufferView":3,
			"componentType":5123,
			"count":2904,
			"type":"SCALAR"
		}
	],
	"bufferViews":[
		{
			"buffer":0,
			"byteLength":23592,
			"byteOffset":0,
			"target":34962
		},
		{
			"buffer":0,
			"byteLength":23592,
			"byteOffset":23592,
			"target":34962
		},
		{
			"buffer":0,
			"byteLength":15728,
			"byteOffset":47184,
			"target":34962
		},
		{
			"buffer":0,
			"byteLength":5808,
			"byteOffset":62912,
			"target":34963
		}
	],
	"samplers":[
		{
			"magFilter":9729,
			"minFilter":9987
		}
	],
	"buffers":[
		{
			"byteLength":68720,
			"uri":"monkey.bin"
		}
	]
}
