{
	"asset":{
		"generator":"Khronos glTF Blender I/O v3.6.27",
		"version":"2.0"
	},
	"scene":0,
	"scenes":[
		{
			"name":"Scene",
			"nodes":[
				0,
				1
			]
		}
	],
	"nodes":[
		{
			"mesh":0,
			"name":"Plane"
		},
		{
			"mesh":1,
			"name":"Sphere",
			"scale":[
				1,
				1.0296396017074585,
				1
			],
			"translation":[
				0,
				2.033461332321167,
				0
			]
		}
	],
	"animations":[
		{
			"channels":[
				{
					"sampler":0,
					"target":{
						"node":1,
						"path":"translation"
					}
				},
				{
					"sampler":1,
					"target":{
						"node":1,
						"path":"scale"
					}
				}
			],
			"name":"SphereAction",
			"samplers":[
				{
					"input":8,
					"interpolation":"LINEAR",
					"output":9
				},
				{
					"input":8,
					"interpolation":"LINEAR",
					"output":10
				}
			]
		}
	],
	"materials":[
		{
			"doubleSided":true,
			"name":"Material.002",
			"pbrMetallicRoughness":{
				"baseColorFactor":[
					0.003973203245550394,
					0.0039412532933056355,
					0.006906704045832157,
					1
				],
				"metallicFactor":0,
				"roughnessFactor":0.5
			}
		},
		{
			"doubleSided":true,
			"name":"Material.001",
			"pbrMetallicRoughness":{
				"baseColorTexture":{
					"index":0
				},
				"metallicFactor":0,
				"metallicRoughnessTexture":{
					"index":1
				}
			}
		}
	],
	"meshes":[
		{
			"name":"Plane.001",
			"primitives":[
				{
					"attributes":{
						"POSITION":0,
						"NORMAL":1,
						"TEXCOORD_0":2
					},
					"indices":3,
					"material":0
				}
			]
		},
		{
			"name":"Sphere",
			"primitives":[
				{
					"attributes":{
						"POSITION":4,
						"NORMAL":5,
						"TEXCOORD_0":6
					},
					"indices":7,
					"material":1
				}
			]
		}
	],
	"textures":[
		{
			"sampler":0,
			"source":0
		},
		{
			"sampler":0,
			"source":1
		}
	],
	"images":[
		{
			"mimeType":"image/png",
			"name":"DALL\u00b7E 2023-11-22 15.27.46 - A celestial computer server, blending elements of space and technology, depicted in a vibrant, psychedelic style, symbolizing the fusion of the cosmos",
			"uri":"DALL%C2%B7E%202023-11-22%2015_27_46%20-%20A%20celestial%20computer%20server%20blending%20elements%20of%20space%20and%20technology%20depicted%20in%20a%20vibrant%20psychedelic%20style%20symbolizing%20the%20fusion%20of%20the%20cosmos.png"
		},
		{
			"mimeType":"image/png",
			"name":"DALL\u00b7E 2023-11-22 15.27.46 - A celestial computer server, blending elements of space and technology, depicted in a vibrant, psychedelic style, symbolizing the fusion of the cosmos",
			"uri":"DALL%C2%B7E%202023-11-22%2015_27_46%20-%20A%20celestial%20computer%20server%20blending%20elements%20of%20space%20and%20technology%20depicted%20in%20a%20vibrant%20psychedelic%20style%20symbolizing%20the%20fusion%20of%20the%20cosmos-1.png"
		}
	],
	"accessors":[
		{
			"bufferView":0,
			"componentType":5126,
			"count":4,
			"max":[
				6.694018363952637,
				0,
				6.694018363952637
			],
			"min":[
				-6.694018363952637,
				0,
				-6.694018363952637
			],
			"type":"VEC3"
		},
		{
			"bufferView":1,
			"componentType":5126,
			"count":4,
			"type":"VEC3"
		},
		{
			"bufferView":2,
			"componentType":5126,
			"count":4,
			"type":"VEC2"
		},
		{
			"bufferView":3,
			"componentType":5123,
			"count":6,
			"type":"SCALAR"
		},
		{
			"bufferView":4,
			"componentType":5126,
			"count":559,
			"max":[
				0.6084807515144348,
				1.2169618606567383,
				0.6084805727005005
			],
			"min":[
				-0.6084804534912109,
				0,
				-0.6084809899330139
			],
			"type":"VEC3"
		},
		{
			"bufferView":5,
			"componentType":5126,
			"count":559,
			"type":"VEC3"
		},
		{
			"bufferView":6,
			"componentType":5126,
			"count":559,
			"type":"VEC2"
		},
		{
			"bufferView":7,
			"componentType":5123,
			"count":2880,
			"type":"SCALAR"
		},
		{
			"bufferView":8,
			"componentType":5126,
			"count":23,
			"max":[
				0.9583333333333334
			],
			"min":[
				0.041666666666666664
			],
			"type":"SCALAR"
		},
		{
			"bufferView":9,
			"componentType":5126,
			"count":23,
			"type":"VEC3"
		},
		{
			"bufferView":10,
			"componentType":5126,
			"count":23,
			"type":"VEC3"
		}
	],
	"bufferViews":[
		{
			"buffer":0,
			"byteLength":48,
			"byteOffset":0,
			"target":34962
		},
		{
			"buffer":0,
			"byteLength":48,
			"byteOffset":48,
			"target":34962
		},
		{
			"buffer":0,
			"byteLength":32,
			"byteOffset":96,
			"target":34962
		},
		{
			"buffer":0,
			"byteLength":12,
			"byteOffset":128,
			"target":34963
		},
		{
			"buffer":0,
			"byteLength":6708,
			"byteOffset":140,
			"target":34962
		},
		{
			"buffer":0,
			"byteLength":6708,
			"byteOffset":6848,
			"target":34962
		},
		{
			"buffer":0,
			"byteLength":4472,
			"byteOffset":13556,
			"target":34962
		},
		{
			"buffer":0,
			"byteLength":5760,
			"byteOffset":18028,
			"target":34963
		},
		{
			"buffer":0,
			"byteLength":92,
			"byteOffset":23788
		},
		{
			"buffer":0,
			"byteLength":276,
			"byteOffset":23880
		},
		{
			"buffer":0,
			"byteLength":276,
			"byteOffset":24156
		}
	],
	"samplers":[
		{
			"magFilter":9729,
			"minFilter":9987
		}
	],
	"buffers":[
		{
			"byteLength":24432,
			"uri":"bouncyball.bin"
		}
	]
}
